<svg xmlns="http://www.w3.org/2000/svg" width="1600" height="900" viewBox="0 0 1600 900" role="img" aria-labelledby="title desc"><title id="title">两个结合：理论创新的实践与文化根基</title><desc id="desc">基本原理同中国实际、中华优秀传统文化相结合，共同推进理论创新。</desc><defs><marker id="arrow" markerWidth="10" markerHeight="10" refX="8" refY="5" orient="auto-start-reverse"><path d="M1 1L8 5L1 9" fill="none" stroke="#547f8e" stroke-width="1.5"/></marker></defs><rect width="1600" height="900" fill="#fbf6ea"/><ellipse cx="270" cy="260" rx="300" ry="205" fill="#e0ece8" opacity=".45"/><ellipse cx="1350" cy="655" rx="320" ry="210" fill="#f5dfbb" opacity=".35"/><g font-family="PingFang SC,Noto Sans CJK SC,sans-serif" fill="#254b5d"><text x="90" y="99" font-size="21" letter-spacing="5" fill="#a6633e">导论 · 概念与方法</text><text x="90" y="166" font-size="42" font-weight="600">两个结合：理论创新的实践与文化根基</text><path d="M90 198H1510" stroke="#ccd4ca"/><rect x="530" y="247" width="540" height="130" rx="16" fill="#e4eeea" stroke="#89a8ad" stroke-width="2"/><text x="800.0" y="304" text-anchor="middle" font-size="32" font-weight="600">马克思主义基本原理</text><text x="800.0" y="356" text-anchor="middle" font-size="25" fill="#456773">立场、观点、方法</text><rect x="100" y="445" width="570" height="167" rx="16" fill="#e4eeea" stroke="#89a8ad" stroke-width="2"/><text x="385.0" y="502" text-anchor="middle" font-size="32" font-weight="600">中国具体实际</text><text x="385.0" y="554" text-anchor="middle" font-size="25" fill="#456773">从现实矛盾中提出问题</text><text x="385.0" y="591" text-anchor="middle" font-size="25" fill="#456773">在实践中检验和发展认识</text><rect x="930" y="445" width="570" height="167" rx="16" fill="#f6e5ce" stroke="#c39a73" stroke-width="2"/><text x="1215.0" y="502" text-anchor="middle" font-size="32" font-weight="600">中华优秀传统文化</text><text x="1215.0" y="554" text-anchor="middle" font-size="25" fill="#456773">在历史文化土壤中扎根</text><text x="1215.0" y="591" text-anchor="middle" font-size="25" fill="#456773">创造性转化、创新性发展</text><path d="M680 379L500 440" stroke="#547f8e" stroke-width="3" fill="none" marker-end="url(#arrow)"/><path d="M920 379L1100 440" stroke="#547f8e" stroke-width="3" fill="none" marker-end="url(#arrow)"/><path d="M390 615L650 686" stroke="#547f8e" stroke-width="3" fill="none" marker-end="url(#arrow)"/><path d="M1210 615L955 686" stroke="#547f8e" stroke-width="3" fill="none" marker-end="url(#arrow)"/><rect x="500" y="692" width="600" height="90" rx="16" fill="#f6e5ce" stroke="#c39a73" stroke-width="2"/><text x="800.0" y="749" text-anchor="middle" font-size="32" font-weight="600">推进理论创新</text><text x="90" y="843" font-size="22" fill="#627881">教学示意图 · 图示突出联系，不表示机械相加</text></g></svg>